<svg width="259" height="60" viewBox="0 0 259 60" fill="none" xmlns="http://www.w3.org/2000/svg">
<path d="M36.2643 25.998C35.4963 24.666 34.1463 24 32.8023 24C31.4583 24 30.1083 24.666 29.3403 25.998L22.4103 37.998C21.6423 39.33 21.7383 40.83 22.4103 42C23.0823 43.17 24.3363 43.998 25.8723 43.998H39.7263C41.2683 43.998 42.5163 43.164 43.1883 42C43.8603 40.836 43.9563 39.336 43.1883 37.998L36.2583 25.998H36.2643ZM32.8023 43.002C28.9383 43.002 25.8003 39.87 25.8003 36C25.8003 32.13 28.9323 28.998 32.8023 28.998C36.6723 28.998 39.8043 32.13 39.8043 36C39.8043 39.87 36.6723 43.002 32.8023 43.002ZM39.7323 16.002C38.1903 13.338 35.4963 12 32.8023 12C30.1083 12 27.4143 13.332 25.8723 16.002L12.0183 40.002C10.4823 42.666 10.6683 45.666 12.0183 48C13.3683 50.334 15.8703 52.002 18.9483 52.002H46.6623C49.7403 52.002 52.2423 50.334 53.5923 48C54.9423 45.666 55.1283 42.666 53.5923 40.002L39.7383 16.002H39.7323ZM49.2543 45.498C47.2683 48.942 43.7103 51 39.7323 51H25.8723C21.8943 51 18.3363 48.942 16.3503 45.498C14.3643 42.054 14.3583 37.944 16.3503 34.5L23.2803 22.494C25.2663 19.05 28.8303 16.998 32.8023 16.998C36.7743 16.998 40.3383 19.05 42.3243 22.494L49.2543 34.5C51.2403 37.944 51.2403 42.054 49.2543 45.498ZM63.9783 42L43.1943 6C40.8843 1.998 36.8463 0 32.8023 0C28.7583 0 24.7203 1.998 22.4103 6L1.62629 42C-0.683709 46.002 -0.395709 50.502 1.62629 54C3.64829 57.498 7.3983 60 12.0183 60H53.5863C58.2063 60 61.9563 57.498 63.9783 54C66.0003 50.502 66.2883 46.002 63.9783 42ZM59.6523 51.498C56.9403 56.196 52.0863 58.998 46.6623 58.998H18.9483C13.5243 58.998 8.67029 56.196 5.95829 51.498C3.24629 46.8 3.24629 41.196 5.95829 36.498L19.8123 12.498C22.5243 7.79999 27.3783 4.998 32.8023 4.998C38.2263 4.998 43.0803 7.79999 45.7923 12.498L59.6463 36.498C62.3583 41.196 62.3583 46.806 59.6463 51.498H59.6523Z" fill="black"/>
<path d="M188.346 18H192.702V32.742C192.702 38.604 188.244 42.342 183.066 42.342C177.888 42.342 173.4 38.604 173.4 32.742V18H177.786V32.604C177.786 35.826 179.808 38.088 183.066 38.088C186.324 38.088 188.346 35.826 188.346 32.604V18ZM202.878 42H207.264V18H202.878V42ZM226.77 28.08C223.104 27.12 221.628 26.262 221.628 24.546C221.628 22.83 223.068 21.6 225.57 21.6C227.832 21.6 229.446 22.764 230.028 24.72H234.21C233.73 19.854 229.788 17.658 225.498 17.658C221.208 17.658 217.272 20.232 217.272 24.552C217.272 28.872 221.112 30.792 224.646 31.65C228.312 32.544 230.268 33.228 230.268 35.388C230.268 37.17 228.792 38.37 226.116 38.37C223.614 38.37 221.832 37.272 221.214 34.974H216.828C217.512 40.116 221.526 42.348 226.116 42.348C231.09 42.348 234.618 39.81 234.618 35.388C234.618 30.348 230.742 29.112 226.764 28.086L226.77 28.08ZM240.648 18V21.942H247.506V42H251.892V21.942H258.75V18H240.648ZM152.46 46.32C152.46 47.418 153.348 48.306 154.446 48.306H164.802V44.328H154.446C153.348 44.328 152.46 45.216 152.46 46.314V46.32ZM125.448 18H121.062V42H136.08V38.022H125.454V18H125.448ZM104.178 19.338L113.694 42H108.828L107.268 37.992H96.0363L94.4763 42H89.6043L99.1203 19.338C100.062 17.094 103.236 17.094 104.178 19.338ZM105.888 34.458L101.646 23.568L97.4043 34.458H105.882H105.888ZM164.802 30C164.802 36.816 159.276 42.342 152.46 42.342C145.644 42.342 140.118 36.816 140.118 30C140.118 23.184 145.644 17.658 152.46 17.658C159.276 17.658 164.802 23.184 164.802 30ZM160.446 29.982C160.446 25.506 156.87 21.876 152.46 21.876C148.05 21.876 144.474 25.506 144.474 29.982C144.474 34.458 148.05 38.088 152.46 38.088C156.87 38.088 160.446 34.458 160.446 29.982Z" fill="black"/>
</svg>
